<?xml version="1.0" encoding="UTF-8"?>
<svg width="120px" height="43px" viewBox="0 0 120 43" version="1.1" xmlns="http://www.w3.org/2000/svg" xmlns:xlink="http://www.w3.org/1999/xlink">
    <!-- Generator: Sketch 41.2 (35397) - http://www.bohemiancoding.com/sketch -->
    <title>Combined Shape</title>
    <desc>Created with Sketch.</desc>
    <defs></defs>
    <g id="Page-1" stroke="none" stroke-width="1" fill="none" fill-rule="evenodd">
        <g id="projects" transform="translate(-1110.000000, -426.000000)" fill="#000000">
            <g id="overlay">
                <g id="Group-6" transform="translate(1110.000000, 426.000000)">
                    <g id="logo-full-copy">
                        <path d="M67.6855931,25.0924961 C67.6415921,23.7859306 67.3175845,22.5349636 66.7615714,21.3435664 C64.1455098,15.7479712 56.8653384,13.6074277 51.325208,16.7725727 L51.325208,21.7883547 C53.0772493,19.5763273 55.65731,18.6470376 58.5293776,19.2705354 C61.0214363,19.8146068 62.8134784,21.1847135 63.5894967,23.6667909 C63.7815012,24.2902887 63.8215022,24.9574711 63.941505,25.6723094 L57.9333636,25.6723094 L57.9333636,29.3735832 L67.6975934,29.3735832 C67.6975934,27.912136 67.7335942,26.502316 67.6855931,25.0924961 Z M0,0.69466836 C0.128003013,0.678783065 0.192004519,0.66289777 0.256006026,0.66289777 C3.98809387,0.66289777 7.7241818,0.57949997 11.4562696,0.702611008 C14.5563426,0.801894102 17.3844092,1.81458167 19.6684629,4.00675241 C21.4685053,5.73427826 22.4045273,7.87879311 22.6005319,10.3410139 C22.6605334,11.1233646 22.6685336,11.9176294 22.6485331,12.6999802 C22.6405329,13.041514 22.7605357,13.2361089 23.0045415,13.4426177 C24.8685853,14.9993767 26.4006214,16.806329 27.1006379,19.173238 C27.3766444,20.1064991 27.5126476,21.0794734 27.7246526,22.0881896 L23.8445612,22.0881896 C23.5445542,19.1414674 22.0205183,16.9334114 19.6644628,15.2495701 C18.8004425,14.6300436 18.6484389,13.8357788 18.780442,12.8707471 C18.9404458,11.7230345 18.8804444,10.5792933 18.4884352,9.47129395 C17.6164146,6.9931879 15.7323703,5.5913106 13.2923129,4.9241282 C12.1282855,4.60245098 10.8882563,4.47536861 9.67622775,4.41977008 C7.83218435,4.3403436 5.97614066,4.39991346 4.12809716,4.39991346 C4.0320949,4.39991346 3.93609264,4.41579876 3.80808963,4.42771273 C3.79608935,4.6064223 3.78408907,4.76527525 3.78408907,4.9241282 C3.78008897,11.5363823 3.74008803,18.1446651 3.79608935,24.7569192 C3.83609029,29.4947085 5.608132,33.5136882 9.43222201,36.4405538 C15.508365,41.090974 23.8645617,39.4309607 27.9886588,32.8544485 C29.5566957,30.3564858 30.3287138,27.6281863 30.3327139,24.6933781 C30.3487143,19.8364491 30.336714,14.9834914 30.3407141,10.1265624 C30.3407141,5.30934661 33.5247891,1.48893312 38.3089017,0.738352922 C43.6450273,-0.0995963992 48.2291352,3.63344797 48.9771528,8.50229094 C49.0611548,9.06621892 49.0851553,9.6460322 49.0851553,10.2179028 C49.0931555,16.4330246 49.0891554,22.6521176 49.0891554,28.8672394 C49.0891554,33.9743618 53.1812517,38.5572694 58.2853719,39.1688533 C61.2374413,39.5223011 64.0055065,39.0616276 66.3375614,37.1156789 C68.9896238,34.9076229 70.4336578,32.0681263 70.4896591,28.593218 C70.5216599,26.7266958 70.3536559,24.8482597 70.8016665,23.0095368 C71.9536936,18.2717475 74.7057584,14.9080362 79.5218717,13.6014707 C85.9180223,11.8660022 92.2221706,15.2098568 94.2862192,21.7744551 C94.7382299,23.208103 94.9222342,24.6814641 94.914234,26.1826245 C94.9062338,27.4296202 94.8422323,28.6845585 94.9742354,29.9156689 C95.4382463,34.3000103 98.8263261,37.9853988 103.178429,38.85909 C106.270501,39.4786166 109.20657,39.0616276 111.798631,37.1673061 C114.158687,35.4437516 115.386716,33.0133014 115.886728,30.2095468 C116.094733,29.0538916 116.162734,27.8624944 116.170734,26.6909539 C116.202735,21.1946418 116.198735,15.6983297 116.194735,10.2020175 C116.190735,7.40223425 114.346691,5.16637895 111.654628,4.66996348 C108.274548,4.04646564 105.010472,6.71916656 105.014472,10.1305337 C105.014472,12.2154787 105.074473,14.2964524 105.102474,16.3813974 C105.118474,17.6323644 104.686464,18.2399769 103.474435,18.6371093 C101.742395,19.2089799 100.094356,19.9516174 98.6463218,21.0715308 C98.102309,21.4924911 97.6142976,21.9849352 97.082285,22.4614941 C97.0542844,22.3979529 97.0182835,22.3145551 96.9902829,22.2311573 C96.5942735,21.123158 96.2182647,20.007216 95.7942547,18.9111306 C95.6862522,18.6331379 95.6942524,18.4901703 95.9222577,18.2916041 C97.3662917,17.0326945 98.9783297,16.0517775 100.802373,15.4521076 C101.230383,15.3091399 101.346385,15.1185164 101.326385,14.6856421 C101.266384,13.3592199 101.302384,12.0288265 101.226383,10.7024043 C100.954376,6.09566872 104.318455,2.32291112 108.398551,1.18314119 C114.170687,-0.425244951 119.146804,3.20851632 119.878822,8.7127711 C119.946823,9.21712923 119.974824,9.72545867 119.974824,10.2337881 C119.978824,16.0080929 120.050826,21.7823977 119.950823,27.5527312 C119.858821,32.763108 117.914775,37.1792201 113.638675,40.3761357 C110.934611,42.3935682 107.806537,43.0925212 104.470459,42.8542418 C100.906375,42.6040484 97.8183024,41.225999 95.298243,38.7042084 C92.6141799,36.0195935 91.1701459,32.7829646 91.1261448,28.9625511 C91.1061444,27.4574194 91.1621457,25.9403737 91.006142,24.4431847 C90.6181329,20.7101403 87.8980689,17.7237048 84.4419875,17.0962356 C79.829879,16.2582863 75.6977817,18.9707005 74.6817578,23.5456655 C74.4857532,24.435242 74.4297519,25.3605605 74.3817507,26.2739649 C74.2937487,27.9101503 74.4537524,29.5781063 74.1777459,31.1785498 C73.3977276,35.7416009 70.7096643,39.0100003 66.6775694,41.1823145 C60.8774329,44.3077463 53.8252669,43.0885499 49.113156,38.2038216 C46.5930967,35.5946619 45.2770657,32.5010006 45.2970662,28.8394401 C45.333067,22.5766625 45.3130665,16.3099135 45.3050663,10.0431646 C45.3010663,6.92170407 42.8730091,4.43565538 39.8209373,4.39991346 C36.6408624,4.36417155 34.1248032,6.83433495 34.1208031,10.023308 C34.1128029,17.652221 34.116803,25.2771627 34.1288033,32.9060757 C34.1288033,33.4263191 34.1928048,33.9584765 34.3248079,34.4628346 C34.7688184,36.1665325 35.728841,37.5207539 37.2528768,38.4460724 C39.1449214,39.5898136 41.680981,39.299907 43.5090241,37.7232914 C43.9050334,37.3817576 44.2570417,36.9885965 44.6210502,36.6272061 C45.3450673,37.6398936 46.0610841,38.6406672 46.8091017,39.6890967 C44.697052,42.0957189 41.9849882,43.1679764 38.7729126,42.8582131 C34.3848093,42.4332815 32.032754,39.6533548 30.6927224,35.6661457 C30.5407188,35.8647119 30.4167159,36.0235649 30.292713,36.1784465 C27.6526509,39.558043 24.2805715,41.8256689 20.012471,42.6000771 C14.8923505,43.5293668 10.3282431,42.2228013 6.41215092,38.8749753 C2.31605451,35.3643251 0.320007532,30.8092167 0.0320007532,25.4836715 C0.0080001883,25.0071126 0,24.5345251 0,24.0579663 L0,1.36979341 L0,0.69466836 Z" id="Combined-Shape"></path>
                    </g>
                </g>
            </g>
        </g>
    </g>
</svg>