<svg id="Laag_1" data-name="Laag 1" xmlns="http://www.w3.org/2000/svg" viewBox="0 0 1316.97 484.65">
  <title>161223_P_CHILL_NURENBURGSTAND_CHILLAFISCHWORLD1</title>
  <g>
    <g>
      <g>
        <path d="M9983.13,3150.77c12.22,1.18,24.5,1.91,36.7,2.51a1971,1971,0,0,0,365.47-16.09c26.64-3.68,53.25-7.91,80-10.59,6.53-.66,13.06-1.23,19.6-1.67,37.88-2.57,75.9-1.07,113.84.44l2.39,0.1c33,1.33,67.21,3.4,95.7,19.91,22.53,13,39.3,34,54.32,55.25,11.45,16.2,22.44,33.43,26.28,52.9s-0.9,41.79-16.4,54.17c-10.57,8.43-24.43,11.21-37.74,13.56-147.54,26-297.9,30.68-447.64,35.27l-0.17-.46c33-12.34,65.82-25,98-39.23,21.82-9.63,43.35-20,65.54-28.73-89.93-30-177.79-53-266.35-19.18-37,14.14-68.88,37.22-99.34,62.8-50.77.51-81.15-4.21-130.1-17.71-46.73-12.9-75.12-22.48-129.2-75.13q33.63-15,66.68-31.17c2.17-1.06,4.46-2.24,5.64-4.34,1.67-3,.56-6.74-1.19-9.65-8.88-14.79-29.65-16-46.79-14.09a303.32,303.32,0,0,0-70.89,17l-0.76-2a839.78,839.78,0,0,1-95-137.31c-5-9-10-19.44-6.94-29.31,4.88-15.79,26-18.92,42.3-15.95,74.19,13.54,121.93,86.95,190.53,118.28a190.6,190.6,0,0,0,18.84,7.4C9937.85,3144.88,9960.39,3148.59,9983.13,3150.77Z" transform="translate(-9651.95 -3002)" fill="#d29a52"/>
        <path d="M10619.7,3064.05a80.36,80.36,0,0,1-18.58,61.39v0l-2.39-.1c-37.94-1.51-76-3-113.84-.44-6.54.44-13.07,1-19.6,1.67l-0.11-1.1c14.05-13.2,35-15.17,52.49-23.25a79.79,79.79,0,0,0,40.59-43.42c0.6-1.56,1.28-3.3,2.8-4a6.13,6.13,0,0,1,2.83-.33l46.38,1.91c2.78,0.11,5.91.38,7.71,2.52A9.53,9.53,0,0,1,10619.7,3064.05Z" transform="translate(-9651.95 -3002)" fill="#d29a52"/>
        <path d="M10439,3288.11c-22.19,8.75-43.72,19.1-65.54,28.73-32.2,14.22-65,26.89-98,39.23-4.28,1.61-8.57,3.2-12.86,4.8l-12.76,4.74-83.36,31-28.43,10.56-146.37,54.36c-20.17,7.49-41,15.1-62.5,14.18-9.92-.43-20.21-2.93-27.57-9.59s-10.82-18.27-6-26.94c9.21-16.46,33.93-9.09,52.57-12,12.41-2,23.2-9.41,33.2-17,31.84-24.22,61.18-52.55,91.93-78.35,30.46-25.58,62.31-48.66,99.34-62.8C10261.24,3235.12,10349.1,3258.16,10439,3288.11Z" transform="translate(-9651.95 -3002)" fill="#d29a52"/>
        <path d="M10265.06,3363.89c15.4,12.61,18.7,35.53,16.45,55.56-1.28,11.37-6.57,25.06-18,25.9a15.56,15.56,0,0,1-7.9-1.63,28,28,0,0,1-9-7.37A46.17,46.17,0,0,1,10265.06,3363.89Z" transform="translate(-9651.95 -3002)" fill="#d29a52"/>
        <path d="M10263.2,3362.45q1,0.69,1.86,1.44a46.17,46.17,0,0,0-18.43,72.46,28,28,0,0,0,9,7.37h0c-42.56,5.51-87.16-5.89-117.45-36.29l-0.11-.31,28.43-10.56,83.36-31,12.76-4.74Z" transform="translate(-9651.95 -3002)" fill="#d29a52"/>
        <path d="M10005,3121.68a72,72,0,0,1-21.86,29.09c-22.74-2.18-45.28-5.89-66.7-13.09v0C9944.67,3126,9975.41,3114,10005,3121.68Z" transform="translate(-9651.95 -3002)" fill="#d29a52"/>
        <path d="M9813.14,3237.14L9793,3247.53c-24.34,12.52-49.49,25.28-76.78,27.5-2.68.22-5.52,0.3-7.9-1s-3.87-3.61-5.21-5.9a132.22,132.22,0,0,1-10.62-23.06c-0.67-1.92-1.3-4-.68-6s2.38-3.3,4.05-4.5a304.83,304.83,0,0,1,142.56-55c17.14-1.95,37.91-.7,46.79,14.09,1.75,2.91,2.86,6.69,1.19,9.65-1.18,2.1-3.47,3.28-5.64,4.34q-33,16.21-66.68,31.17Z" transform="translate(-9651.95 -3002)" fill="#d29a52"/>
      </g>
      <g>
        <path d="M10073.34,3331.73c-50.77.51-81.15-4.21-130.1-17.71-46.73-12.9-75.12-22.48-129.2-75.13" transform="translate(-9651.95 -3002)" fill="none" stroke="#d29a52" stroke-miterlimit="10" stroke-width="18"/>
        <path d="M9814.9,3236.24l-1.76.9L9793,3247.53c-24.34,12.52-49.49,25.28-76.78,27.5-2.68.22-5.52,0.3-7.9-1s-3.87-3.61-5.21-5.9a132.22,132.22,0,0,1-10.62-23.06c-0.67-1.92-1.3-4-.68-6s2.38-3.3,4.05-4.5a304.83,304.83,0,0,1,142.56-55c17.14-1.95,37.91-.7,46.79,14.09,1.75,2.91,2.86,6.69,1.19,9.65-1.18,2.1-3.47,3.28-5.64,4.34q-33,16.21-66.68,31.17" transform="translate(-9651.95 -3002)" fill="none" stroke="#d29a52" stroke-miterlimit="10" stroke-width="18"/>
        <path d="M9766.73,3194.57a839.78,839.78,0,0,1-95-137.31c-5-9-10-19.44-6.94-29.31,4.88-15.79,26-18.92,42.3-15.95,74.19,13.54,121.93,86.95,190.53,118.28a190.6,190.6,0,0,0,18.84,7.4c21.42,7.2,44,10.91,66.7,13.09,12.22,1.18,24.5,1.91,36.7,2.51a1971,1971,0,0,0,365.47-16.09c26.64-3.68,53.25-7.91,80-10.59,6.53-.66,13.06-1.23,19.6-1.67,37.88-2.57,75.9-1.07,113.84.44l2.39,0.1c33,1.33,67.21,3.4,95.7,19.91,22.53,13,39.3,34,54.32,55.25,11.45,16.2,22.44,33.43,26.28,52.9s-0.9,41.79-16.4,54.17c-10.57,8.43-24.43,11.21-37.74,13.56-147.54,26-297.9,30.68-447.64,35.27" transform="translate(-9651.95 -3002)" fill="none" stroke="#d29a52" stroke-miterlimit="10" stroke-width="18"/>
        <path d="M10439,3288.11c-22.19,8.75-43.72,19.1-65.54,28.73-32.2,14.22-65,26.89-98,39.23-4.28,1.61-8.57,3.2-12.86,4.8l-12.76,4.74-83.36,31-28.43,10.56-146.37,54.36c-20.17,7.49-41,15.1-62.5,14.18-9.92-.43-20.21-2.93-27.57-9.59s-10.82-18.27-6-26.94c9.21-16.46,33.93-9.09,52.57-12,12.41-2,23.2-9.41,33.2-17,31.84-24.22,61.18-52.55,91.93-78.35,30.46-25.58,62.31-48.66,99.34-62.8,88.56-33.81,176.42-10.77,266.35,19.18" transform="translate(-9651.95 -3002)" fill="none" stroke="#d29a52" stroke-miterlimit="10" stroke-width="18"/>
        <path d="M10265.45,3363.73l-0.39.16a46.17,46.17,0,0,0-18.43,72.46,28,28,0,0,0,9,7.37,15.56,15.56,0,0,0,7.9,1.63c11.41-.84,16.7-14.53,18-25.9,2.25-20-1-42.95-16.45-55.56q-0.9-.75-1.86-1.44" transform="translate(-9651.95 -3002)" fill="none" stroke="#d29a52" stroke-miterlimit="10" stroke-width="18"/>
        <path d="M10255.62,3443.73c-42.56,5.51-87.16-5.89-117.45-36.29" transform="translate(-9651.95 -3002)" fill="none" stroke="#d29a52" stroke-miterlimit="10" stroke-width="18"/>
        <path d="M10601.12,3125.44a80.36,80.36,0,0,0,18.58-61.39,9.53,9.53,0,0,0-1.72-5.1c-1.8-2.14-4.93-2.41-7.71-2.52l-46.38-1.91a6.13,6.13,0,0,0-2.83.33c-1.52.68-2.2,2.42-2.8,4a79.79,79.79,0,0,1-40.59,43.42c-17.51,8.08-38.44,10.05-52.49,23.25" transform="translate(-9651.95 -3002)" fill="none" stroke="#d29a52" stroke-miterlimit="10" stroke-width="18"/>
        <path d="M9981.65,3151.92c0.5-.37,1-0.75,1.48-1.15a72,72,0,0,0,21.86-29.09c-29.58-7.64-60.32,4.27-88.55,16" transform="translate(-9651.95 -3002)" fill="none" stroke="#d29a52" stroke-miterlimit="10" stroke-width="18"/>
      </g>
    </g>
    <path d="M10072.29,3330.25c-20.54.18-41.06-.46-61.44-3.17-20.07-2.67-39.81-7.21-59.35-12.44-28.11-7.52-55.74-16-80.3-32-18.64-12.17-35.31-27.06-51.25-42.53-2.68-2.61-7.09-3.64-10.47-1.71-3,1.69-4,5.72-1.35,8.27,26.3,25.53,54.7,49.26,88.94,63.24,13.66,5.58,27.86,9.66,42.06,13.59,20.75,5.74,41.65,11,63,14.31,23.92,3.66,48.13,4.59,72.3,4.38,3.4,0,6.86-2.72,6.34-6.35-0.56-3.87-5.07-5.6-8.44-5.57h0Z" transform="translate(-9651.95 -3002)" fill="#3c3c3b"/>
    <path d="M9811.58,3237.81c-25.88,13.31-52,29-80.66,35.57-3.45.79-7,1.41-10.47,1.87-2.69.35-6.91,1.48-9.4,0.28-2.84-1.37-4.79-6.57-6.17-9.19a122.38,122.38,0,0,1-5.64-12.26c-0.87-2.19-3-6.13-2.72-8.57,0.36-3.22,5.92-5.8,8.32-7.43q8.6-5.88,17.58-11.15a301.24,301.24,0,0,1,77.31-31.8,277.35,277.35,0,0,1,41-7.43c10-1,21.31-1.2,30.54,3.45,4.21,2.12,14.31,10,10.08,15.66-1.85,2.47-6.59,3.78-9.19,5q-6.44,3.14-12.91,6.22-23.6,11.26-47.5,21.89c-6,2.65-.24,9,4.54,6.84q25.66-11.43,51-23.56,5.33-2.56,10.65-5.14c3.52-1.71,7.77-3.2,10.7-5.88,5.32-4.87,3.65-11.88-.1-17.19-16.17-22.87-53.19-15.27-76.07-10.7a313.08,313.08,0,0,0-92.2,34.18q-11,6.18-21.38,13.26c-5.26,3.58-13.24,7.47-12.21,15,1.05,7.7,5.68,15.9,9.28,22.7s7.43,13.14,15.86,13.86c8.75,0.75,18.29-1.67,26.7-3.85a181.79,181.79,0,0,0,26.84-9.51c18-7.85,35.37-17.32,52.84-26.32,2.14-1.1,2-3.82.41-5.29-1.91-1.79-4.89-1.66-7.05-.54h0Z" transform="translate(-9651.95 -3002)" fill="#3c3c3b"/>
    <path d="M9777.69,3200.38a849.21,849.21,0,0,1-59-78.1q-13.59-20.36-26-41.49c-3.81-6.5-7.66-13-11.13-19.73-3.85-7.43-7.67-16.12-5.05-24.57,7.09-22.92,39.6-14.31,54.75-8.35,21.61,8.5,42,23.68,60.51,38.45,20.67,16.47,40.62,33.82,62.38,48.87a247.47,247.47,0,0,0,78.62,36.34c31.48,8.24,64.12,10.45,96.49,12q52.59,2.52,105.26,2.23a1974.73,1974.73,0,0,0,207.95-12.17c34.8-3.88,69.38-9.21,104.09-13.77a713.28,713.28,0,0,1,102.47-6c32.63,0.42,66,.46,98.42,4.79,13.65,1.82,27.46,4.89,39.71,11.4,12.49,6.64,23.07,16.45,32.36,27a329.78,329.78,0,0,1,26.61,35.29c8.36,12.54,15.75,26,19,40.85,2.84,12.82,2,26.57-3.58,38.57-6.13,13.26-17.68,20.87-31.47,24.65-15.8,4.33-32.46,6.3-48.62,8.81q-25.85,4-51.8,7.28c-33.89,4.27-67.9,7.59-102,10.27-69.65,5.49-139.47,8.28-209.29,10.55q-25.09.81-50.18,1.57c-4.76.15-5.56,3.11-2.11,6.14,4.12,3.62,11.25,5.92,16.72,5.75,143.81-4.4,288.19-8.91,430.44-32.21,28.33-4.64,62.58-7.81,73.71-39.09,10.22-28.72-3.67-57.68-19.51-81.29-17.38-25.89-37.49-51.66-65.16-67.13-29.3-16.38-62.62-20.9-95.65-22.63-35-1.83-70.11-3.2-105.12-2.25-36.44,1-72.47,6-108.51,11.18a2016.73,2016.73,0,0,1-213.94,19.4q-54.81,2-109.67.86c-34-.68-68.3-1.44-102.1-5.52-29.05-3.5-57.15-10.6-82.45-25.67-23-13.72-43.47-31.3-64.19-48.19-20.88-17-42.29-33.57-66.32-46-22.85-11.78-52.12-22.84-78.21-17.72-11.2,2.2-22.63,9-24.11,21.37-1.9,15.76,10.15,31.42,17.66,44.3a841.09,841.09,0,0,0,55.34,83.16q14.75,19.54,30.62,38.19c3.62,4.27,10.23,6.51,15.64,7.12,2.59,0.29,9.94-.16,6.28-4.48h0Z" transform="translate(-9651.95 -3002)" fill="#3c3c3b"/>
    <path d="M10437.15,3286.75c-39.14,15.51-76.89,34.27-116.07,49.76-39.55,15.64-79.56,30.13-119.43,44.94l-119.8,44.5-60.44,22.45c-19.17,7.12-38.25,15.07-57.91,20.76-16.11,4.66-38.67,9.29-53.62-1.11-6.06-4.21-10.64-12-8.71-19.57,1.43-5.61,6.19-8.14,11.5-9.09,15-2.67,30.09,1.17,44.83-3.8,17.24-5.82,31.76-18.81,45.63-30.16,53.16-43.52,101.38-97.53,166.19-124.08,36.95-15.14,76.92-20.46,116.65-17.68,40.82,2.85,80.7,13,119.65,25.11,9.94,3.09,19.83,6.31,29.7,9.6,3.59,1.19,8,.06,10.1-3.25a5.49,5.49,0,0,0-2.66-8.27c-79.89-26.57-165.33-49.85-249.06-26.78-73.49,20.25-127.54,74.57-183.62,122.92-13.94,12-28.06,24.65-43.64,34.54-7.64,4.85-15.47,8-24.55,8.46-7.58.43-15.18-.14-22.76,0.27-14.81.8-30.67,7.43-32.86,23.94-2.5,18.84,14.32,31.39,30.78,34.92,19.58,4.19,40.5-.84,59.09-7,20.9-7,41.43-15.15,62.08-22.82l126.45-47c41.55-15.43,83.16-30.71,124.62-46.37,41.1-15.52,81.28-32.71,121.38-50.63,10-4.47,20.07-8.81,30.26-12.84,3.24-1.28,6.43-4.32,5.26-8.14-1.08-3.52-5.86-4.8-9-3.55h0Z" transform="translate(-9651.95 -3002)" fill="#3c3c3b"/>
    <path d="M10262.35,3362.39c-32,13-44.11,53.2-22.93,81,10,13.17,28.46,18.33,40.44,4.56,9.69-11.15,10.39-28.45,9.49-42.42-1.12-17.25-7.67-33.56-21.76-44.11-6.78-5.08-16.37,5.3-8.76,11,11.39,8.53,15.28,23.7,15.84,37.25a71,71,0,0,1-1.72,20.31c-1.15,4.45-3.62,11.89-8.76,13.15-6.95,1.71-13.3-8.08-16-13.11a41.22,41.22,0,0,1-4.68-22.25,39.91,39.91,0,0,1,25-33.74c9-3.67,2.22-15.08-6.2-11.66h0Z" transform="translate(-9651.95 -3002)" fill="#3c3c3b"/>
    <path d="M10256.62,3443.51c-40.14,5-82.36-5.32-111.65-34.32-2.51-2.49-6.57-2.4-9.69-1.11-1.87.77-6.46,4.06-3.91,6.58,32.27,32,78.86,43.78,123.25,38.25,2.93-.36,7.7-1.55,8.32-5.09,0.59-3.32-3.79-4.64-6.32-4.32h0Z" transform="translate(-9651.95 -3002)" fill="#3c3c3b"/>
    <path d="M10246.13,3401.18q5.39-.06-5.14-2.9a10,10,0,0,1,1.33,1.44c0.49,1.46,1.82,2.72,2.3,4.32a12.1,12.1,0,0,1-.5,8.48c-2.65,6.07-8.91,9.49-15.25,10.25-1.11.13,4,2.86,4.4,3,2.22,1,6.11,3.39,8.72,3.08,9.64-1.15,20.3-9.44,16-20.18-1.71-4.23-5.14-6.76-9.09-8.77-4.74-2.42-10.4-5.22-15.87-4.85-1.08.07,4,2.86,4.4,3,2.34,1.1,6,3.26,8.72,3.08h0Z" transform="translate(-9651.95 -3002)" fill="#3c3c3b"/>
    <path d="M10606.05,3135.58a82.32,82.32,0,0,0,19.22-48.26c0.44-8.13.49-16.83-4.65-23.55-2.38-3.11-5.47-6.3-9.2-7.69-4.63-1.73-10.32-1.14-15.19-1.34l-31.89-1.31c-3.3-.14-7.73-1.19-9.95,1.91-2.43,3.4-3.5,8.26-5.54,12a79.83,79.83,0,0,1-36.11,33.76c-17.41,8-37.81,9.94-52.49,23.25-2,1.83,7.91,13.07,9.86,11.31,10.73-9.73,24.71-13.43,38.14-17.82s25.87-10.47,36.17-20.5a80.61,80.61,0,0,0,12.76-16.05,77.12,77.12,0,0,0,4.87-9.47c1.47-3.43,1.87-6.86,6.23-7,8.94-.31,18.12.74,27.06,1.11l13.53,0.56c2.32,0.1,8.61-.78,10.41.88l-5-5.71c0.8,1.24.62,4.82,0.72,6.6a77.93,77.93,0,0,1,0,8.84,81,81,0,0,1-2.68,16.65,79.84,79.84,0,0,1-16.15,30.56c-2.07,2.46,8.53,12.89,9.86,11.31h0Z" transform="translate(-9651.95 -3002)" fill="#3c3c3b"/>
    <path d="M9987.72,3159.6a76.89,76.89,0,0,0,24.24-31.18c1.27-3-1.5-5.53-4.36-6.23-33.31-8.17-65.36,3.37-95.93,16-3,1.26-3.27,4.17-.94,6.27,2.56,2.31,7.36,2.87,10.49,1.57,25-10.34,53.63-22.65,81.16-15.9l-4.36-6.23a71.38,71.38,0,0,1-22.43,29.29c-6,4.6,7.68,9.82,12.14,6.4h0Z" transform="translate(-9651.95 -3002)" fill="#3c3c3b"/>
    <path d="M10128.91,3195.45c-6.62-6.33-18.83-6.38-26.63-2.26-9.82,5.19-10.1,17.71-2.15,24.86,7.41,6.66,20.6,6.87,28.49.91,9.12-6.89,10.66-21.94-.6-27.56a11.38,11.38,0,0,0-6.84-.51c-0.8.18-3.76,1-1.79,2,6.57,3.28,8.2,11.6,5.48,18a17.46,17.46,0,0,1-7,8.12c-3.43,2-5.8.55-8.53-2.08-4.5-4.34-6.74-11.64-3.48-17.35a12.92,12.92,0,0,1,6.09-5.37c3-1.26,5.07-.12,7.35,2.07,1.38,1.32,4.41,1.15,6.15,1,0.46,0,4.65-.65,3.49-1.76h0Z" transform="translate(-9651.95 -3002)" fill="#3c3c3b"/>
    <path d="M10234.25,3187.46c-13.24-7.58-27.19-8.64-40.07.13-9.21,6.27-15.84,18.95-6.35,28.18,8.33,8.11,20.37,6.73,29.67,1.3,11.34-6.64,17.22-18.1,16.88-31.17,0-.11-8.81,2.19-8.74,4.87,0.21,8-2,17.61-8.15,23.28-5.6,5.17-16.08,1.57-20.92-3.15a15.09,15.09,0,0,1-1.61-19.81c6.83-9.63,22.41-3.44,30.57,1.23,2.38,1.36,8.69-4.89,8.74-4.87h0Z" transform="translate(-9651.95 -3002)" fill="#3c3c3b"/>
    <path d="M10327.07,3188.45c-7-.56-15-1.09-21.28,2.49-6.06,3.44-8.45,10.13-7.32,16.81,2.2,13,13.8,23.37,26.5,25.38,6.34,1,13.73.64,19.27-2.94,6.3-4.08,7.45-11.58,7.32-18.56-0.18-10.13-9.07-29.8-22.31-24.49-0.79.32,3.75,9,5.73,8.2a9.38,9.38,0,0,1,7.07-.13c3.06,1.17,3.15,3.34,3.43,6.48,0.41,4.67.22,10.07-1.77,14.38-4.17,9-15.89,10.26-24.54,8.71-4.36-.78-10.17-2.4-13.12-5.94-3.21-3.84-2.23-11.2.43-15.12,5.56-8.21,17-7.74,25.67-7,0.64,0.05-2.64-8-5.07-8.22h0Z" transform="translate(-9651.95 -3002)" fill="#3c3c3b"/>
    <path d="M10422.31,3184.26c-12.92-4.35-29.73.7-34.73,14.29-5.36,14.56,6.73,26.66,20.45,29.2s29.06-3.89,33.75-17.67c4.6-13.5-6.13-27.1-20.15-26.88-2.07,0-5.37.57-6.35,2.74-0.88,2,.75,3.36,2.74,3.33,9.17-.15,16,8.71,15.05,17.56a16.89,16.89,0,0,1-20.77,14.87c-9-2-17.38-9.55-16.19-19.4,1.28-10.62,10.62-15.61,20.4-12.32,3.47,1.17,11.35-3.86,5.8-5.73h0Z" transform="translate(-9651.95 -3002)" fill="#3c3c3b"/>
    <path d="M10518.79,3181.68c-10.57-3.43-23.55.09-28.28,10.95-4.43,10.19.94,21.87,9.49,28,8.89,6.38,21.49,5.84,29-2.5,9.94-11.06,1.51-26.21-5.18-36.43-2-3.12-10.2-5-6.63.44,5.08,7.77,11.13,18.31,5.71,27.43-3.58,6-13.23,11.06-19.92,7-6.47-3.9-6.75-14.44-3.27-20.27,4-6.7,13-10.59,20.54-8.15,6.2,2,2.08-5.34-1.45-6.49h0Z" transform="translate(-9651.95 -3002)" fill="#3c3c3b"/>
    <path d="M10690.1,3141.62c-8.52,13.16-21.83,21.62-36.41,26.78a139.26,139.26,0,0,1-23.65,5.88c-6.14,1-13.86,1-19,5-14.11,11.09,14.7,28,22.85,31.32,15.65,6.35,33.52,5.8,49.5,1,20-6,37.48-17.86,54.37-29.81,1.19-.84-8.57-11.76-11.39-9.76-25.13,17.77-53.4,36.29-85.67,32.69a59.2,59.2,0,0,1-10.21-2c-2.59-.77-9.09-2.23-10.77-4.57s-0.14-6.11,1.45-7.92c2.08-2.37,5.28-3.43,8.25-4.13,6.26-1.48,12.78-1.92,19.08-3.28a131,131,0,0,0,18.43-5.37c13.87-5.22,26.41-13.51,34.56-26.11,1.64-2.53-10.3-11.44-11.39-9.76h0Z" transform="translate(-9651.95 -3002)" fill="#3c3c3b"/>
  </g>
  <ellipse cx="703.54" cy="287.81" rx="613.42" ry="125.71" fill="#3c3c3b" opacity="0.06"/>
</svg>
