<svg id="Laag_1" data-name="Laag 1" xmlns="http://www.w3.org/2000/svg" viewBox="0 0 765.52 522.82">
  <title>chillaworld-bush</title>
  <g>
    <ellipse cx="384.16" cy="481.55" rx="381.35" ry="41.27" fill="#3c3c3b" opacity="0.06"/>
    <g>
      <g>
        <g>
          <path d="M4902.25,5352.21h1.7a130.15,130.15,0,0,0,46.21-74l11.85,31.38a49,49,0,0,1,32.59-6.19l-18,18.15a120.24,120.24,0,0,1,49.24,10.91l-25.63,18.82,56.14,1.67c5,0.15,10.18.28,15-1.25,14.37-4.61,20-21.55,23.64-36.21l19.47,30.86c1.34,2.12,2.89,4.4,5.3,5.09,3.71,1.07,7.17-2.1,9.89-4.84a107.88,107.88,0,0,1,72.61-31.48l-20,33.61a262.09,262.09,0,0,1,107,6l-50.34,28.12q31.14-2.13,62.38-2c-9.29,13.61-19,30.19-13.08,45.57,1.86,4.83,5.13,9,8.35,13l31.79,40q-25.65,1.13-51.25,3.23a99.26,99.26,0,0,1,20.79,30.18,189.65,189.65,0,0,0-38.91,3.73,42.93,42.93,0,0,1,6.88,24.14,63.12,63.12,0,0,0-29.07-8.71,105.25,105.25,0,0,1-.79,55.33,20.92,20.92,0,0,0-40.09-.23c-6.76-6.34-6.77-16.82-9.56-25.66S5173,5544.17,5165.8,5550a167.21,167.21,0,0,1,1.18,58.09,174.3,174.3,0,0,0-23.24-24,33,33,0,0,1-7.46,15.89,81.79,81.79,0,0,0-32.4-16.14,208.69,208.69,0,0,1-12.62,59q-8.58-20.35-17.17-40.71l-20.73,21.77c-1.35,1.41-2.88,2.92-4.82,3.05h-0.15c-2.4.09-4.33-1.93-5.9-3.78l-46.6-55A303.94,303.94,0,0,0,4973,5635q-10.74-27.33-23.89-53.63l-21.57,29.44a64.52,64.52,0,0,0-27.65-19.23c-0.5,1.7-1,3.4-1.49,5.1l-9.72,33.32c-5.2-8.65-11-17.83-20.24-21.84s-22.71.44-23.88,10.47c-0.3-16.28-18.28-26.64-34.47-28.28s-32.94,1.89-48.64-2.4a171.36,171.36,0,0,1,38.09-19.05l-61,14.48a72.74,72.74,0,0,0-5.68-28.06,134.72,134.72,0,0,0-29.08,35.18q-1.56-23.56-3.13-47.12a141,141,0,0,0-34.77,45,98.9,98.9,0,0,0-15.62-80.32c-11.69-16.18-28.34-28.8-37.27-46.65a197.17,197.17,0,0,0,45.65,2.38,161.45,161.45,0,0,1-12.51-38.18,166.37,166.37,0,0,0,43.63,16.83,229.75,229.75,0,0,1-19.72-76.56,144.32,144.32,0,0,0,26.84,11.68,54,54,0,0,1,0-34.27l31.7,17.07L4700,5314.18l76.62,11.19-25.38-56.6,61.79,46.89c2.16,1.63,4.83,3.36,7.38,2.44,2.09-.76,3.18-3,4.06-5l20.44-47.37a142.87,142.87,0,0,1,6.23,58.44,179.09,179.09,0,0,1,58.68-44.24A366.91,366.91,0,0,0,4902.25,5352.21Z" transform="translate(-4595.16 -5237.14)" fill="#d29a52"/>
          <path d="M5118,5686.8l-24.63,11.12c-2.85,1.29-6.19,2.59-9,1.19-1.87-.93-3-2.85-4.18-4.59-9.82-14.68-29.15-22.28-46.34-18.24a146.62,146.62,0,0,1,15,29.69l-29.95-7.42a8,8,0,0,0-4.67-.21c-7.23,2.67,2.71,17.11-4.11,20.7l-46.23-41.93q-3,16.32-6.05,32.63L4940.27,5674a388.12,388.12,0,0,1-51.4,31.83,323.41,323.41,0,0,0,24.8-35.89,97.54,97.54,0,0,0-48.37,14.26l46.47-32.74c2.48-1.74,5.13-3.73,5.9-6.66,0.72-2.76-.42-5.63-1.53-8.25q-8.43-19.8-16.85-39.59l-0.91-.26c0.5-1.7,1-3.4,1.49-5.1a64.52,64.52,0,0,1,27.65,19.23l21.57-29.44q13.14,26.27,23.89,53.63a303.94,303.94,0,0,1,22.91-66.77l46.6,55c1.57,1.85,3.5,3.87,5.9,3.78-2.94,7.65-.73,17.43,6.09,22.21,4.15,2.9,9.26,4,14.13,5.33A99.26,99.26,0,0,1,5118,5686.8Z" transform="translate(-4595.16 -5237.14)" fill="#d29a52"/>
        </g>
        <g>
          <path d="M4902.24,5353.44c0-.41,0-0.82,0-1.23a366.91,366.91,0,0,1,7.61-72.32,179.09,179.09,0,0,0-58.68,44.24,142.87,142.87,0,0,0-6.23-58.44l-20.44,47.37c-0.88,2-2,4.28-4.06,5-2.55.92-5.22-.81-7.38-2.44l-61.79-46.89,25.38,56.6L4700,5314.18l28.45,46.24-31.7-17.07a54,54,0,0,0,0,34.27,144.32,144.32,0,0,1-26.84-11.68,229.75,229.75,0,0,0,19.72,76.56,166.37,166.37,0,0,1-43.63-16.83,161.45,161.45,0,0,0,12.51,38.18,197.17,197.17,0,0,1-45.65-2.38c8.93,17.85,25.58,30.47,37.27,46.65a98.9,98.9,0,0,1,15.62,80.32,141,141,0,0,1,34.77-45q1.56,23.55,3.13,47.12a134.72,134.72,0,0,1,29.08-35.18,72.74,72.74,0,0,1,5.68,28.06l61-14.48a171.36,171.36,0,0,0-38.09,19.05c15.7,4.29,32.44.75,48.64,2.4s34.17,12,34.47,28.28c1.17-10,14.61-14.48,23.88-10.47s15,13.19,20.24,21.84l9.72-33.32c0.5-1.7,1-3.4,1.49-5.1a64.52,64.52,0,0,1,27.65,19.23l21.57-29.44q13.14,26.27,23.89,53.63a303.94,303.94,0,0,1,22.91-66.77l46.6,55c1.57,1.85,3.5,3.87,5.9,3.78h0.15c1.94-.13,3.47-1.64,4.82-3.05l20.73-21.77q8.6,20.36,17.17,40.71a208.69,208.69,0,0,0,12.62-59,81.79,81.79,0,0,1,32.4,16.14,33,33,0,0,0,7.46-15.89,174.3,174.3,0,0,1,23.24,24,167.21,167.21,0,0,0-1.18-58.09c7.23-5.8,17.73,2.72,20.52,11.55s2.8,19.32,9.56,25.66a20.92,20.92,0,0,1,40.09.23,105.25,105.25,0,0,0,.79-55.33,63.12,63.12,0,0,1,29.07,8.71,42.93,42.93,0,0,0-6.88-24.14,189.65,189.65,0,0,1,38.91-3.73,99.26,99.26,0,0,0-20.79-30.18q25.59-2.1,51.25-3.23l-31.79-40c-3.22-4.05-6.49-8.19-8.35-13-5.92-15.38,3.79-32,13.08-45.57q-31.21-.16-62.38,2l50.34-28.12a262.09,262.09,0,0,0-107-6l20-33.61a107.88,107.88,0,0,0-72.61,31.48c-2.72,2.74-6.18,5.91-9.89,4.84-2.41-.69-4-3-5.3-5.09l-19.47-30.86c-3.62,14.66-9.27,31.6-23.64,36.21-4.8,1.53-10,1.4-15,1.25l-56.14-1.67,25.63-18.82a120.24,120.24,0,0,0-49.24-10.91l18-18.15a49,49,0,0,0-32.59,6.19l-11.85-31.38a130.15,130.15,0,0,1-46.21,74" transform="translate(-4595.16 -5237.14)" fill="none" stroke="#d29a52" stroke-miterlimit="10" stroke-width="20"/>
          <path d="M4899.29,5597q8.43,19.79,16.85,39.59c1.11,2.62,2.25,5.49,1.53,8.25-0.77,2.93-3.42,4.92-5.9,6.66l-46.47,32.74a97.54,97.54,0,0,1,48.37-14.26,323.41,323.41,0,0,1-24.8,35.89,388.12,388.12,0,0,0,51.4-31.83l17.59,35.73q3-16.32,6.05-32.63l46.23,41.93c6.82-3.59-3.12-18,4.11-20.7a8,8,0,0,1,4.67.21l29.95,7.42a146.62,146.62,0,0,0-15-29.69c17.19-4,36.52,3.56,46.34,18.24,1.17,1.74,2.31,3.66,4.18,4.59,2.81,1.4,6.15.1,9-1.19L5118,5686.8a99.26,99.26,0,0,0-49.43-32.26c-4.87-1.37-10-2.43-14.13-5.33-6.82-4.78-9-14.56-6.09-22.21a16.28,16.28,0,0,1,4.06-6.15" transform="translate(-4595.16 -5237.14)" fill="none" stroke="#d29a52" stroke-miterlimit="10" stroke-width="20"/>
        </g>
      </g>
      <path d="M4908,5351.89a372.43,372.43,0,0,1,7.6-72.78c0.74-3.61-6.56-2.11-8-1.42a191.42,191.42,0,0,0-61.8,46.41l11.15-.75a148.49,148.49,0,0,0-6.22-59.22c-1.32-4.15-10.43-.33-11.58,2.33l-13.37,31c-2.23,5.16-4.38,10.36-6.68,15.49-0.62,1.38-2.19,2.77.1,2.2,2.52-.63-0.35-1.43-1.54-2.29-2.41-1.75-4.76-3.61-7.13-5.41l-53.87-40.87c-2.09-1.58-12.91-.06-11.19,3.77l25.37,56.59,9.38-4.56-76.62-11.19c-2.28-.33-11.39,1.31-9,5.23l28.46,46.24,10-4.92-31.71-17.08c-2.74-1.48-9.4.27-10.42,3.48a57.3,57.3,0,0,0,0,35l10.43-4.26a152.91,152.91,0,0,1-26.84-11.68c-2.63-1.46-10.75.45-10.43,4.26a234.08,234.08,0,0,0,19.72,76.56l9.38-4.56a168.36,168.36,0,0,1-42.58-16.52c-2.37-1.31-11.19.45-10.43,4.26a168.14,168.14,0,0,0,12.51,38.18l8.09-4.67a199.48,199.48,0,0,1-44.36-2.27c-1.66-.27-11.08,1.28-9.38,4.56,11,21.35,31.73,35.31,43.34,56.24a98.35,98.35,0,0,1,9.56,70c-1.07,4.51,10.17,1.26,11.56-1.56a140,140,0,0,1,33.6-43.44l-10.41.74,3.13,47.12c0.25,3.82,10.06.38,11.17-1.53a135.55,135.55,0,0,1,28.32-34.38l-10.41.74a76.74,76.74,0,0,1,5.68,28.06c0,2.35,5.6,1.37,6.52,1.15l61-14.49-3-4.9a184.89,184.89,0,0,0-39.4,19.69c-2.27,1.5-3.37,3.72,0,4.56,17.8,4.53,36.18-.55,53.93,3.24,13,2.77,26.28,11.63,27,26,0.17,3.58,11.06.81,11.58-2.33,1.29-7.77,8.34-9.64,14.83-6.34,8.31,4.23,13.48,13,18.12,20.71,1.82,3,10.37-.24,11.18-3l11.2-38.43-10.42,3.48a64.74,64.74,0,0,1,26.89,18.74c2.27,2.64,9.07.12,10.77-2.19l21.57-29.43-11.17,1.53q13.11,26.29,23.89,53.63c1.44,3.65,10.87.9,11.58-2.33a311,311,0,0,1,22.91-66.77l-11.18,3,44.71,52.73c2.76,3.25,5.26,6.36,9.75,6.79a16.08,16.08,0,0,0,12-4.2c8-7.22,15.11-15.81,22.54-23.62l-11.17,1.53,17.17,40.71c1.63,3.86,10.47.67,11.58-2.33a214.59,214.59,0,0,0,12.62-59l-9.37,3.79a80.32,80.32,0,0,1,30.59,15.35c2.84,2.28,8.66.38,10.77-2.19a37.46,37.46,0,0,0,7.88-16.69l-11.18,3a183.61,183.61,0,0,1,23.23,24c2,2.52,10.7.2,11.18-3a174.17,174.17,0,0,0-1.16-58.87l-2.24,3.11c2-1.36.21,0-.4-0.33,0.64,0.4,1.72.48,2.44,0.82a16.31,16.31,0,0,1,5,4c2.93,3.28,4.24,7.1,5.24,11.31,1.86,7.86,2.91,16,8.81,22,2.51,2.56,10.08.17,11.18-3,2.08-6,7.3-12,14.25-10.67s12.12,6.83,14.26,13.23c1.28,3.85,10.73.68,11.58-2.33a109.34,109.34,0,0,0,.8-56.11l-8.09,4.67a61,61,0,0,1,26.73,8.3c2.81,1.61,10.43-.51,10.43-4.26a45.84,45.84,0,0,0-7.28-24.8l-6.24,5.24a191.24,191.24,0,0,1,37.45-3.64c1.54,0,9.48-1.61,8.09-4.67a105.42,105.42,0,0,0-21.19-30.84l-6.24,5.24q24.87-2,49.79-3.13c1.86-.08,10.32-2,7.69-5.34l-18.34-23.07c-6.06-7.62-12.73-15-18.13-23.14-11.3-17-.57-35.46,9.38-50.12,1.5-2.22-1.29-3.14-3.07-3.15q-31.22-.13-62.39,2l1.25,4.67,50.34-28.12c2.5-1.4,3.18-3.73,0-4.56a272.86,272.86,0,0,0-109.75-6l4.53,3,20-33.61c1.31-2.2-1.1-3.22-3.07-3.15A120.49,120.49,0,0,0,5143,5331.3a115.3,115.3,0,0,0-12.67,9.55c-2,1.77-3.92,3.65-5.85,5.51-0.56.54-2.32,2.59-3,2.59,2.12,0,0-2.37-.38-2.87-7.77-10.11-14-22-20.76-32.75-1.84-2.92-10.46.14-11.18,3-3.24,13-8.34,33.06-24.64,33.62-10,.34-20.11-0.49-30.09-0.78l-31.94-.95,2.31,3.94,25.63-18.82c1.33-1,1.73-2.76,0-3.52a129.62,129.62,0,0,0-51.58-11.33l2.31,3.94,18-18.15c1.54-1.55,1.61-3.45-1-3.83a62,62,0,0,0-39.73,7.65h9.35L4956,5276.71c-1.39-3.68-10.86-.86-11.58,2.33a128.29,128.29,0,0,1-45,72.36c-2,1.61-1.08,3.21,1,3.83,2.54,0.75,6.22-.61,8.2-2.2a134.6,134.6,0,0,0,47.38-75.55l-11.58,2.33,11.85,31.38c1.21,3.2,7.43,1.1,9.35,0a39,39,0,0,1,25.45-4.73l-1-3.83-18,18.15c-2.33,2.35-.53,3.9,2.31,3.94a117.77,117.77,0,0,1,46.9,10.5l0-3.52-25.63,18.82c-2.94,2.16,0,3.87,2.31,3.94l38.72,1.15c11.26,0.33,23.6,2.11,34.62-.92,18.43-5.07,25.3-23.08,29.5-39.91l-11.18,3,11.27,17.86c3.18,5,6,11,9.95,15.5,8.26,9.42,19.85-.42,26.36-6.47a97.92,97.92,0,0,1,62.79-26.36l-3.07-3.15-20,33.61c-1.76,3,2.63,3.33,4.53,3a258.67,258.67,0,0,1,104.26,6l0-4.56-50.34,28.12c-3.14,1.75-2.59,4.93,1.25,4.67q31.15-2.09,62.39-2l-3.07-3.15c-9.81,14.46-21.33,33.64-11.65,51,4.76,8.55,11.84,16,17.9,23.65l20.78,26.14,7.69-5.34q-26.38,1.18-52.7,3.33c-1.47.12-8.85,2.6-6.24,5.24a100.8,100.8,0,0,1,20.39,29.52l8.09-4.67a206.49,206.49,0,0,0-40.36,3.83c-2,.39-8.21,2.07-6.24,5.24a43.81,43.81,0,0,1,6.48,23.47l10.43-4.26a71,71,0,0,0-31.41-9.13c-2-.12-8.9,1.46-8.09,4.67a105.81,105.81,0,0,1-.78,54.56l11.58-2.33c-8-24-44-20.07-51.66,2.1l11.18-3c-8.3-8.47-5.77-21.71-12.32-31.15-6.09-8.79-17.68-11.67-26.71-5.4-1,.7-2.53,1.63-2.24,3.11a169.25,169.25,0,0,1,1.19,57.32l11.18-3a183.61,183.61,0,0,0-23.23-24c-2.44-2.1-10.48-.54-11.18,3a33.32,33.32,0,0,1-7.05,15.09l10.77-2.19a89,89,0,0,0-34.21-16.94c-2.18-.55-9.15.69-9.37,3.79a214.59,214.59,0,0,1-12.62,59l11.58-2.33-17.17-40.71c-1.66-3.95-9.31-.42-11.17,1.53l-11,11.57-5.18,5.44c-1,1-3.76,4.9-4.71,5.13l4.31-.31c-2.92-.3-5.07-4-6.76-5.95l-6.3-7.43-12.59-14.85L5001.28,5566c-2.49-2.94-9.85.2-11.18,3a311,311,0,0,0-22.91,66.77l11.58-2.33q-10.78-27.33-23.89-53.63c-1.79-3.59-9.41-.87-11.17,1.53l-21.57,29.43,10.77-2.19a68.87,68.87,0,0,0-28.4-19.72c-2.86-1.06-9.4,0-10.42,3.48l-11.2,38.43,11.18-3c-6.64-11-14.94-23.28-29-24.14-10.26-.63-24.36,4.26-26.27,15.76l11.58-2.33c-0.71-14.84-14.34-24.13-27.43-27.89-18.9-5.44-38.88.58-57.89-4.25l0,4.56a172,172,0,0,1,36.78-18.41c1.5-.54,4.25-2.17,3.36-4.08s-4.88-1.16-6.32-.82l-61,14.49,6.52,1.15a76.74,76.74,0,0,0-5.68-28.06c-1.41-3.46-8.49-.93-10.41.74a142.41,142.41,0,0,0-29.84,36l11.17-1.53-3.13-47.12c-0.25-3.71-9.08-.42-10.41.74a149.37,149.37,0,0,0-35.94,46.63l11.56-1.56a101,101,0,0,0-8.76-70.08c-11.49-21.71-32.88-35.91-44.11-57.66l-9.38,4.56a211.47,211.47,0,0,0,46.94,2.49c1.48-.09,9.54-1.57,8.09-4.67a168.14,168.14,0,0,1-12.51-38.18l-10.43,4.26a176.31,176.31,0,0,0,44.69,17.13c1.81,0.43,10.87-1.24,9.38-4.56a234.08,234.08,0,0,1-19.72-76.56l-10.43,4.26a152.91,152.91,0,0,0,26.84,11.68c2.12,0.69,11.72-.23,10.43-4.26a54.27,54.27,0,0,1-.05-33.49l-10.42,3.48,31.71,17.08c2.48,1.34,12.46-1,10-4.92L4705.43,5312l-9,5.23,76.62,11.19c1.76,0.26,10.92-1.14,9.38-4.56l-25.37-56.59-11.19,3.77,33.27,25.25,17.43,13.22c4.79,3.64,9.79,8.73,15.4,11a14.81,14.81,0,0,0,14.22-2.21c4.08-3.24,5.66-9.65,7.63-14.21l16.91-39.18-11.58,2.33a144.62,144.62,0,0,1,6.24,57.67c-0.48,5,9.65,1,11.15-.75a173.55,173.55,0,0,1,55.54-42.06l-8-1.42a380,380,0,0,0-7.63,74.33c0,3.26,11.57,1.2,11.59-3.11h0Z" transform="translate(-4595.16 -5237.14)" fill="#3c3c3b"/>
      <path d="M4893.5,5598.52l11.48,27c1.79,4.2,3.66,8.36,5.36,12.6,2,4.9,2.36,8.08-2.17,11.66-14.8,11.67-31.05,21.88-46.47,32.73-1.71,1.21-3.25,3-1,4.51s6.29,0.06,8.21-1.09a88.11,88.11,0,0,1,42.52-12.69l-3.14-3.39a337.7,337.7,0,0,1-24.8,35.89c-1.3,1.64.38,2.89,1.84,3.25,2.39,0.6,5.05-.34,7.14-1.43a408,408,0,0,0,52.45-32.6l-10.44.61,17.59,35.73c1.76,3.58,10.91,1.38,11.59-2.28l6.05-32.63-11.18,3,46.23,41.93c2.23,2,6.78.85,9-.56,6.81-4.36,4-10.6,3.62-17.3a13.87,13.87,0,0,0,0-2.17,5,5,0,0,1,.23-1.12l-2.21,1.53c0,0.28,8.57,2.12,9.36,2.32l20.59,5.1c2.06,0.51,10.7-1.09,9.35-4.69a157.63,157.63,0,0,0-15.39-30.4l-4.61,5.15c15.12-3.27,31.08,4.81,39.78,17,1.94,2.73,3.45,5.13,6.8,6.2,3.77,1.2,7.83.37,11.48-.91,9.42-3.3,18.51-8.21,27.61-12.32,1.48-.67,4.79-2.61,3.1-4.63a102.55,102.55,0,0,0-44-30.83c-7.79-2.77-18.36-3.39-23.43-10.68-4.25-6.11-4.23-15.79,1.12-21.24,4.72-4.8-6.6-4.63-9.29-1.88a21.6,21.6,0,0,0-5.83,20.81c2.34,9,9.76,13.18,18.18,15.62,20.74,6,38.49,16,52.5,32.73l3.1-4.63-14.07,6.36-7,3.18c-1.28.58-4.16,2.59-5.62,2.35-2-.33-4.7-5.94-6-7.49a44.25,44.25,0,0,0-8.41-7.67c-12.14-8.62-27.13-10.88-41.53-7.77-2,.43-6.31,2.53-4.61,5.15a150,150,0,0,1,14.57,29l9.35-4.69-24.33-6c-6.17-1.53-12.68-3.47-18.47.39-3.46,2.31-4.2,5.42-3.86,9.36,0.15,1.74,2.39,9.75.78,10.78l9-.56-46.23-41.93c-2.5-2.27-10.49-.69-11.18,3l-6.05,32.63,11.59-2.28-17.59-35.73c-1.8-3.66-8.13-1.08-10.44.61a391.45,391.45,0,0,1-50.35,31.07l9,1.82a337.7,337.7,0,0,0,24.8-35.89c1.33-2.23-1.13-3.46-3.14-3.39a112.05,112.05,0,0,0-54.22,15.83l7.19,3.42,26.44-18.62,12.82-9c3.94-2.78,8.41-5.34,11.85-8.73,7.19-7.08,1.35-15.89-1.9-23.52l-13-30.59c-1.7-4-13.11-.47-11.59,3.11h0Z" transform="translate(-4595.16 -5237.14)" fill="#3c3c3b"/>
      <path d="M4924.75,5611.69a180.16,180.16,0,0,0,4.58,41c0.57,2.49,6.38,1,5.8-1.55a175.59,175.59,0,0,1-4.53-40c0-2.86-5.84-1.88-5.85.52h0Z" transform="translate(-4595.16 -5237.14)" fill="#3c3c3b"/>
      <path d="M4978.46,5679.52H5007c3.29,0,4.46-4.2.53-4.2H4979c-3.29,0-4.46,4.2-.53,4.2h0Z" transform="translate(-4595.16 -5237.14)" fill="#3c3c3b"/>
      <path d="M4998.58,5568.49q-4.15,32.3-10.48,64.26c-0.57,2.85,5.36,2.13,5.87-.45q6.34-31.95,10.48-64.26c0.38-2.93-5.54-2.16-5.87.45h0Z" transform="translate(-4595.16 -5237.14)" fill="#3c3c3b"/>
      <path d="M5017.87,5603.2A85.73,85.73,0,0,1,5009,5645c-0.6,1.21,4.95.73,5.75-.9a87.1,87.1,0,0,0,8.88-42.42c-0.06-1.35-5.88-.33-5.8,1.55h0Z" transform="translate(-4595.16 -5237.14)" fill="#3c3c3b"/>
      <path d="M4755.52,5357.21a134.64,134.64,0,0,0,.34,18.26c0.14,1.6,3.31,1.61,4.23,1.55a11.27,11.27,0,0,0,6.18-2.26c2.84-2.22,4.58-6,2.6-9.37-2.07-3.52-6.74-4.14-10.43-3.44l3.78,3.89,3.2-3.1-10-.88a5.85,5.85,0,0,0,.72,8.47c1.89,1.46,4.81,1,6.88.26,1.17-.41,5.21-2.11,4.3-4-3.87-8.25-21.54-4.69-22.5,4.14-0.48,4.38,11.16,2.21,11.57-1.54,0.18-1.65.79-2.06-1.45-.88-1,.55-0.68-0.68-0.08.27a9.83,9.83,0,0,1,.88,1.11l11.19-3.78c-1.31-1-1.88-2.54-.76-3.94,1.52-1.9-.9-3-2.44-3.13-2.4-.26-5.77.53-7.55,2.25l-3.2,3.1c-3,3,1,4.42,3.78,3.89q-0.94-.19.33,0.45a2.59,2.59,0,0,1,.89,1.58,2.83,2.83,0,0,1-1,3l10.41-.71a123.06,123.06,0,0,1-.37-16.7c0.21-4.5-11.39-2.14-11.57,1.54h0Z" transform="translate(-4595.16 -5237.14)" fill="#3c3c3b"/>
      <path d="M4713,5442.23c4.32,1.75,10.16-.54,12.44-4.52,1.93-3.38.29-6.93-3.08-8.47-7.39-3.37-18.53,3.28-15.19,12,1.88,4.9,10.65,2.25,11.65-2l1.91-8.18c0.65-2.77-3.33-3.79-5.3-3.57-2.69.3-5.75,1.69-6.42,4.55l-1.91,8.18,11.65-2a3.37,3.37,0,0,1-.21-2.86q-0.14.56,0.15-.15a1.4,1.4,0,0,1-.58.6,4.42,4.42,0,0,1-2.53.81,2.1,2.1,0,0,1-.92-0.11q-0.76-.44-0.07,0-0.5-.53,0,0-0.23-.6,0,0.1,0-.65-0.08.07a0.94,0.94,0,0,1,.37-0.69q-1,1,1.12-.7,6.23,0.41,3.77-.5c-2.6-1.05-6.4.14-8.2,2.2s-1,4.37,1.43,5.35h0Z" transform="translate(-4595.16 -5237.14)" fill="#3c3c3b"/>
      <path d="M4813.6,5497.06c-2.54,2.2-3.92,5.07-3.22,8.45a9.74,9.74,0,0,0,4.13,6c5.77,3.73,14.41.65,16.17-6.06a9.18,9.18,0,0,0-7.69-11.63c-7.5-1.08-14.24,4.79-16.22,11.7a3.93,3.93,0,0,0,3.64,5.26c6,0.23,12.14-1.82,15.67-7,4.21-6.15-6.58-8.53-9.81-3.82a8,8,0,0,1-1.06,1.36q0.44-.49-0.29.16,0.59-.32.05,0a7.59,7.59,0,0,1-.77.38q0.77-.28.14-0.09t0.17,0q-1,0-.22.1l3.64,5.26a12.2,12.2,0,0,1,1.59-3.6,11.5,11.5,0,0,1,.74-0.89,1,1,0,1,0,.24-0.15q-0.78.43,0.11,0a2.5,2.5,0,0,1-1.07.3,1.66,1.66,0,0,1-.86-0.17q0.78,0.33-.12-0.1,0.61,0.5,0-.11a5,5,0,0,1,.44.61q0.38,0.68,0,0a6.33,6.33,0,0,1,.22.75c0.11,0.84.18-.56,0.07,0.57,0,0.23-.07,1.64,0,0.54a5.29,5.29,0,0,1-.28.7,1,1,0,1,0,.07-0.18,3.79,3.79,0,0,1,2.65-1.22,3,3,0,0,1,1.27.17q-0.77-.34.07,0a2.79,2.79,0,0,1-1-1.51q-0.14-.8-0.09,0a4.55,4.55,0,0,1,0-.8q-0.26.79,0,0a2,2,0,0,1-.63.82c1.94-1.68,2.91-4.58.52-6.37s-6.25-1.22-8.34.6h0Z" transform="translate(-4595.16 -5237.14)" fill="#3c3c3b"/>
      <path d="M4738.23,5494.43a47.77,47.77,0,0,0,17.39-2.25c1.87-.62,4.63-1.93,4.85-4.25,0.51-5.2-5.92-6.33-9.78-5.38a10.87,10.87,0,0,0-5.93,3.77,17.14,17.14,0,0,0-1.84,3.15q-0.34.75-.74,1.46a3.53,3.53,0,0,1,3.54-1.24l2.44,0.79-0.6-.3a8.12,8.12,0,0,0-8.29.78c-1.65,1.2-3.35,4.38-.7,5.69a11,11,0,0,0,11.45-1.09,11.3,11.3,0,0,0,3.2-3.52c0.76-1.3,1.12-2.73,2.26-3.76l-2.3,1.65q-3.41,1.65-4.4-1l4.85-4.25a30.77,30.77,0,0,1-11.26,1.71c-2.69-.12-6.3.79-7.57,3.47-1.17,2.47,1,4.46,3.45,4.57h0Z" transform="translate(-4595.16 -5237.14)" fill="#3c3c3b"/>
      <path d="M4786.09,5436.88c-2.74.35-6.56,1.86-6.89,5.11a4.38,4.38,0,0,0,1.93,3.93c2.84,2.08,7.69.83,9.86-1.65a4.14,4.14,0,0,0,.33-5.36,6.82,6.82,0,0,0-4.68-2.27,11,11,0,0,0-7.25,1.86,7.48,7.48,0,0,0-3.11,4.83,11.85,11.85,0,0,0,.35,4.55c0.62,2.75,4.7,3,6.85,2.37,2.31-.69,5.39-2.62,4.74-5.48a14.58,14.58,0,0,1-.35-2.22l0.07,1.1a6.74,6.74,0,0,1,0-.78c0-.18.2-0.74,0-0.2q-0.18.52,0,0l-0.37.52a5.55,5.55,0,0,1-2.2,1.41,5.09,5.09,0,0,1-3.53.23s-1.09-.65-0.6-0.29a1.21,1.21,0,1,0-.38-0.24l-0.49-1a1.1,1.1,0,0,1,.09.34l-0.07-1.1a1.26,1.26,0,0,1,0,.39l1-2.13,0.77-.73,2.78-1.32-0.12,0,3.07-.25a3.89,3.89,0,0,1,2.72,1.28,1.5,1.5,0,0,1-.16-0.28l0.49,1a1.71,1.71,0,0,1-.11-0.45l0.07,1.1q0.05-.65-0.23.73l-1.7,2-1.05.63-3.08.83,0.17,0a9,9,0,0,0,4.36-1.59,4.83,4.83,0,0,0,2-3.06c0.14-2.8-2.94-4-5.34-3.74h0Z" transform="translate(-4595.16 -5237.14)" fill="#3c3c3b"/>
      <path d="M4836.26,5410.06c2,5.8,9.62,5.63,14.41,4.25,3-.88,6.75-2.59,8-5.78a6.76,6.76,0,0,0-1.43-6.7c-4.22-5.07-14.23-2.76-18,1.74-2.94,3.49-2,9,2.46,10.61,1.83,0.65,4.32.07,6.05-.5,1.49-.49,3.71-1.28,4.4-2.86a5.21,5.21,0,0,0-3.74-7,12,12,0,0,0-8.14,1.34c-1.07.57-3.95,2.87-1.28,3.56a2.86,2.86,0,0,1,1.67,4l10.45-3.36c-1.77-.63-2.22-3.2-1.8-4.87a9.7,9.7,0,0,1,.4-1.16c0.22-.55,1.53-1.13-0.38,0a8.07,8.07,0,0,1-5.06,1.07,2.33,2.33,0,0,1,.53.2,12.13,12.13,0,0,1,1.43,1.23,5.44,5.44,0,0,1,1.22,3.38,3.22,3.22,0,0,1-.26,1.18c-0.11.24-.41,1-0.45,0.72a8.64,8.64,0,0,1,4.06-1.3q0.78,0-.08,0a3.13,3.13,0,0,1-.78-0.31,4.21,4.21,0,0,1-2.08-2.49c-1.09-3.19-12.59.19-11.59,3.11h0Z" transform="translate(-4595.16 -5237.14)" fill="#3c3c3b"/>
      <path d="M4910.36,5406.69a7.37,7.37,0,0,0,.92,7.78c3.11,3.68,10.23,1.59,11.18-3,0.75-3.6-2.21-6.49-5.31-7.63-4.27-1.57-9.84-.42-12.63,3.31-2.61,3.5-1.39,7.91,2.08,10.26a11,11,0,0,0,6.65,1.81,11.46,11.46,0,0,0,7.67-3.59c2-1.92.8-5.1-1.59-5.93a7.89,7.89,0,0,0-8.2,2.2,4.78,4.78,0,0,1,2.69-1.5,3.15,3.15,0,0,1,1.38-.05q-0.83-.13.43,0.15a3.89,3.89,0,0,1-.45-0.16,1.49,1.49,0,1,0,.42.25,9.33,9.33,0,0,1-.77-0.56c0.93,0.67.13,0-.14-0.35l0.25,0.52a3.32,3.32,0,0,1-.16-0.57,1.08,1.08,0,1,0,0,.43q0.05-.51-0.17.41c0.33-.56-0.37.35-0.43,0.4a3.12,3.12,0,0,1-1.16.82q0.84-.4-0.78.28a1.44,1.44,0,1,0-.53.13c-1.69,0-.91,0-0.41.07q-1.34-.37-0.55-0.1,0.55,0.25-.07-0.07a1.38,1.38,0,1,0,.34.3s-0.65-1-.17-0.07-0.38-.92-0.11-0.14a2.37,2.37,0,1,0,0-.4,2.94,2.94,0,0,1-.09.55l11.18-3a3.59,3.59,0,0,1-.51-0.69q0.31,0.61.06-.14,0,0.69,0-.11-0.26.69,0.06-.07c1.14-2.6-1.07-4.9-3.62-5.18-2.79-.31-6.31.86-7.53,3.63h0Z" transform="translate(-4595.16 -5237.14)" fill="#3c3c3b"/>
      <path d="M4979.2,5406.69a7.37,7.37,0,0,0,.92,7.78c3.11,3.68,10.23,1.59,11.18-3,0.75-3.6-2.21-6.49-5.31-7.63-4.27-1.57-9.84-.42-12.63,3.31-2.61,3.5-1.39,7.91,2.08,10.26a11,11,0,0,0,6.65,1.81,11.46,11.46,0,0,0,7.67-3.59c2-1.92.8-5.1-1.59-5.93a7.89,7.89,0,0,0-8.2,2.2,4.78,4.78,0,0,1,2.69-1.5,3.15,3.15,0,0,1,1.38-.05q-0.83-.13.43,0.15a3.89,3.89,0,0,1-.45-0.16,1.49,1.49,0,1,0,.42.25,9.33,9.33,0,0,1-.77-0.56c0.93,0.67.13,0-.14-0.35l0.25,0.52a3.32,3.32,0,0,1-.16-0.57,1.08,1.08,0,1,0,0,.43q0.05-.51-0.17.41c0.33-.56-0.37.35-0.43,0.4a3.12,3.12,0,0,1-1.16.82q0.84-.4-0.78.28a1.44,1.44,0,1,0-.53.13c-1.69,0-.91,0-0.41.07q-1.34-.37-0.55-0.1,0.55,0.25-.07-0.07a1.38,1.38,0,1,0,.34.3s-0.65-1-.17-0.07-0.38-.92-0.11-0.14a2.37,2.37,0,1,0,0-.4,2.93,2.93,0,0,1-.09.55l11.18-3a3.59,3.59,0,0,1-.51-0.69q0.31,0.61.06-.14,0,0.69,0-.11-0.26.69,0.06-.07c1.14-2.6-1.07-4.9-3.62-5.18-2.79-.31-6.31.86-7.53,3.63h0Z" transform="translate(-4595.16 -5237.14)" fill="#3c3c3b"/>
      <path d="M4886.71,5378.26c2.62-1.49,4.63-3.83,4.38-7-0.23-2.89-2.73-4.53-5.41-4.92-4.91-.72-17.36,3.28-13.3,10.35,3.49,6.08,14.65,3.66,17.86-1.58,2.7-4.42-.66-9.82-4.49-12.17-3-1.81-13.7,2.63-9.3,5.33a7.39,7.39,0,0,1,2.86,4.46,4.81,4.81,0,0,1,.12,2.2c0,0.2-.25.7-0.24,0.72q-0.53.68,0.75-.53,7.62,0.11,4.84-1c-0.59-.69-1.38-1-1.45-2.09a7.78,7.78,0,0,1,.16-1,7.89,7.89,0,0,1-1.14.52,5.4,5.4,0,0,1-4,.6,5.89,5.89,0,0,1,.67.51,4.15,4.15,0,0,1,.42,1.43,7.18,7.18,0,0,1-.13,1c-0.07.76-1.09,1,.29,0.17-1.56.88-3.46,3-1.12,4.15s6.1,0,8.18-1.18h0Z" transform="translate(-4595.16 -5237.14)" fill="#3c3c3b"/>
      <path d="M4792.1,5345l4.41,0.26-3.69-3.1c-0.08,3.91,1.93,7,6.15,7.15a11.92,11.92,0,0,0,7.31-2.19c1.63-1.16,3.27-3.26,2.45-5.36-0.89-2.28-3.89-2.35-5.91-2-2.34.43-5,1.66-5.71,4.12l-1.21,4.1c-0.78,2.65,3.5,3.28,5.16,3.07,2.57-.33,5.7-1.54,6.5-4.27l1.21-4.1-11.62,2.15q1.45,4.22,7.85-2.32a1,1,0,1,0-.23-0.27,7.72,7.72,0,0,1-.28-1.3c0-2.09-1.79-3-3.69-3.1l-4.41-.26c-2.63-.16-6.24.87-7.6,3.34s1.17,3.94,3.32,4.06h0Z" transform="translate(-4595.16 -5237.14)" fill="#3c3c3b"/>
      <path d="M4926.73,5516c-3.85.54-7.51,2.29-9.33,5.91a7.78,7.78,0,0,0,.43,8.16c2.28,3.24,8,1.73,10.17-.8a10.32,10.32,0,0,0-2.4-15.32,9.91,9.91,0,0,0-11.75.71,10.37,10.37,0,0,0-3.87,7.56c-0.15,7.11,6.1,11.37,12.88,9.87,7-1.54,12.63-8.69,9.09-15.63-1.3-2.54-5.87-1.92-7.89-.93-2.46,1.2-4,3.49-2.71,6.08,0.42,0.83-.34,2-0.78,2.58a0.59,0.59,0,1,0-.23.12c0.38-.1.7-0.42,1.12-0.51a2.34,2.34,0,0,1,1.51.09l-0.43-.16,0.33,0.16a0.77,0.77,0,1,0-.25-0.16,5.35,5.35,0,0,1-.89-2.35,3.18,3.18,0,0,1,.25-1.51c0.3-.65-0.05-0.21,0-0.07a1.71,1.71,0,1,0,.12-0.16,1.7,1.7,0,0,1-.66.49l-4.58.79c1,0.12.12,0-.17-0.19a4.15,4.15,0,0,0,.72.47,5.19,5.19,0,0,1,.94,1.43,4.12,4.12,0,0,1,.36,1.76c0,0.05-.26,1.31-0.08.75-0.25.82,0.25-.14-0.35,0.57l10.17-.8a1,1,0,0,1-.21-1,1.16,1.16,0,1,0,.07-0.15q0.23-.45-0.06,0l0.32-.38a4,4,0,0,1-2.79,1.28c2.57-.36,6.06-1.73,6.37-4.75,0.29-2.8-3-4.24-5.39-3.91h0Z" transform="translate(-4595.16 -5237.14)" fill="#3c3c3b"/>
      <path d="M4795,5543.46a11.73,11.73,0,0,0,12.19,16.15c7.55-.68,16.5-10.09,10-17.23-5.76-6.37-18.86-8-25.71-2.82a9.81,9.81,0,0,0,4.38,17.66c8.6,1.39,20.07-8.86,12.66-17.12-3.45-3.84-14.46.79-10.62,5.07a3.13,3.13,0,0,1,1,1.82c0.08,0.48-.46,1.82-0.34,2.09,0.27,0.59-2.81,1.77,1.46,0,1.39-.59.51,0.56-0.07-0.69s-1.52-2.31-.8-3.63c-0.15.27-.91,0.24,0,0.16a7.52,7.52,0,0,1,2.44.43c1.63,0.45,4.33,1.16,5.4,2.53a2.31,2.31,0,0,1,.56,2c-0.05.57-.89,1.53-0.86,1.86l-0.22.16q3.21-.22,1.69-0.59s-1.37-1.39-1.33-1.33a5.76,5.76,0,0,1-.79-5.2c2.35-6.16-9.26-6-11.06-1.25h0Z" transform="translate(-4595.16 -5237.14)" fill="#3c3c3b"/>
      <path d="M4892.19,5564.46a3.4,3.4,0,0,0,1.13,4c2.08,1.82,9.13-.49,10.71-2.39,2.23-2.69,5.32-6.58,2.73-10-2.79-3.69-8.81-2.17-12.35-.55-3.14,1.44-5.29,3.8-3.76,7.32,1.45,3.34,5.89,5.1,5.39,9.16-0.31,2.55,9.4-.84,10.25-1.34,5.65-3.31,7.41-11.79,1.5-15.86-2.28-1.57-10.1.34-11.18,3l-3.25,8c-0.8,2,3.9,1.33,4.66,1.2,1.82-.31,5.95-1.15,6.78-3.21l3.25-8-11.18,3c3.37,2.31,4.55,9.08.51,11.44l10.25-1.34c0.34-2.81-1.76-4.76-3.55-6.65a8.31,8.31,0,0,1-2-2.85,4.82,4.82,0,0,1-.4-1.66c0-1.21.95-1.26-.59-0.58l-5.85,1.57c-1.48.19-.64-0.2,0.12,0.74a3.82,3.82,0,0,1,.78,2.22c0,2-1.48,3.8-2.65,5.21l10.71-2.39a1.79,1.79,0,0,1-.6-2.07c0.73-2.37-10.51-1-11.44,2h0Z" transform="translate(-4595.16 -5237.14)" fill="#3c3c3b"/>
      <path d="M5026.84,5569.41a5.28,5.28,0,0,0-1.25,6.65c1.53,2.82,4.46,3.4,7.44,3.16,5.45-.43,16.58-5.1,12.33-12.52-3.89-6.8-15-4.29-20.36-1.09-2.67,1.6-5.21,4.24-4.95,7.6,0.28,3.57,3.7,5.32,6.89,5.41a15.9,15.9,0,0,0,5.76-1.05c0.86-.31,3.48-1.17,3.72-2.33a23.66,23.66,0,0,1,3.45-8.38c1.15-1.76-4.18-1.18-4.63-1.1-2.17.38-5.48,1.15-6.8,3.15a23.66,23.66,0,0,0-3.45,8.38l9.48-3.38c-1.27,0-2.25-1.67-2.58-2.72-0.55-1.73.07-2.87,0.86-4.34l0.59-.57q-5.45.57-3.15,1c0.45,0.3,1.16.38,1.66,0.68a5.4,5.4,0,0,1,2.5,3.13,4.87,4.87,0,0,1-.27,3.45c-0.22.48-.68,0.9-0.87,1.36q8.71-.22,5.64-1.39a1.91,1.91,0,0,1-.68-0.4c-1.33-1.38-2.62-4-.84-5.6,2-1.75-1.75-2-2.73-1.88-2.56.2-5.77,1-7.76,2.76h0Z" transform="translate(-4595.16 -5237.14)" fill="#3c3c3b"/>
      <path d="M5101.93,5478l0.27,7.6c0.07,1.83,5.77.56,6.32,0.39,2.73-.83,8.44-2.8,6.28-6.78-2-3.71-9-1.67-11.88-.52a18.6,18.6,0,0,0-9.8,9c-1.47,2.95-3.46,9.08,0,11.39,3.25,2.17,9.11.08,12.16-1.46,2.63-1.32,8.8-4.76,9.26-8,0.69-4.75-6.69-3-9-2.24-1.51.53-4,1.36-4.49,3.14a1.82,1.82,0,0,0,1.68,2.48,13.44,13.44,0,0,0,8.12-1.43c0.88-.45,4.08-2.75,1.37-3.22l-0.49-.08,1.05,0.77a0.63,0.63,0,0,1,0-1l-3.68,2.44,0.53-.19-7.49.55c2.25,1-1.07,3-2,3.74q-0.65.52-1.33,1-2.83,1.87,4.32-1.64c0.24-.75-0.22-2.33-0.11-3.22a15.61,15.61,0,0,1,2.16-6.12,21.11,21.11,0,0,1,2.2-2.8l-4,.78a1.61,1.61,0,0,1,0,1.55l4.75-2.3-0.69.21,6.32,0.39-0.27-7.6c-0.08-2.21-11.71-.32-11.59,3.11h0Z" transform="translate(-4595.16 -5237.14)" fill="#3c3c3b"/>
      <path d="M5094.36,5455.67a5.9,5.9,0,0,0,4.35,3.36c2.73,0.59,8.15-.35,10-2.68,3.12-3.91,2.42-9.87-2.76-11.61-5.77-1.93-14.65.72-18.05,5.81a0.73,0.73,0,0,0,.27,1c3.79,2.48,9.15,1.25,13.07-.27,3.57-1.38,7.07-3.77,7.3-7.89,0.1-1.79-11.4-.4-11.59,3.11,0,0.3-1,2.83-1.19,2.59l0,0a9.42,9.42,0,0,1,4.61-1c-0.14-.15-1-0.42-1.23-0.55l0.27,1a2,2,0,0,1,.46-0.55q1.85-1.68-3.73,1.05c0,0.21-.79-0.43.09,0.15a5.52,5.52,0,0,1,2.23,2.1c0.9,1.7,1.06,4.24-.2,5.83l10-2.68a3.09,3.09,0,0,1-2.26-1.9c-1.36-2.9-12.57,1-11.59,3.11h0Z" transform="translate(-4595.16 -5237.14)" fill="#3c3c3b"/>
      <path d="M5112.85,5384.58c-1,3.94-1.16,9.59,3.93,10.32,4.57,0.66,14.4-1.7,13.44-8-1-6.61-11.83-3.18-15.37-1.4-6.21,3.12-6.66,9.28-2.6,14.54,2,2.64,9.89-.56,11.51-2.59,2-2.55,4.23-5.43,4.11-8.87a6.27,6.27,0,0,0-4.89-6c-2.65-.73-9,0.64-10.48,3.25A34.79,34.79,0,0,0,5108,5400c-0.14,1.37,11.26.3,11.59-3.11a32.53,32.53,0,0,1,4.3-13.17l-10.48,3.25c2.28,0.63,3.06,3.59,2.76,5.64-0.39,2.63-2.26,4.88-3.87,6.89l11.51-2.59a13,13,0,0,1-2.61-5.08c-0.45-2.07.16-3.37,0.95-5.15l0.33-.34q-7.66,0-4.69,1.8c0.12,0.5.64,1,.77,1.55a3.76,3.76,0,0,1,0,1.48c-0.33,1.86-1.7,1.25,1.51.24l4.51-1c1.71-.14.61,0-0.05-1a5.41,5.41,0,0,1-.59-1.8,11.86,11.86,0,0,1,.26-5.05c0.57-2.29-10.71-.77-11.42,2.08h0Z" transform="translate(-4595.16 -5237.14)" fill="#3c3c3b"/>
      <path d="M5159.78,5390.09c2.33,2.23,4.77,4.16,8.06,4.61a13.87,13.87,0,0,0,9.93-2.61c2.26-1.66,3.95-4.42,2.58-7.18-1.24-2.5-4.35-3.49-6.95-3.72-10.11-.89-23.06,9.21-18.21,20.22,1.55,3.52,7,1.93,9.48.49a20.48,20.48,0,0,0,8.42-9.17c2.44-5.45-9.15-4.51-10.89-.62a11.67,11.67,0,0,1-4.89,5.71l9.48,0.49a8.3,8.3,0,0,1,1.41-9.22c0.72-.73,1.92-1,0.3-0.74a0.91,0.91,0,0,1,.57.33q0.71,2.57,4.39-1c-0.41-.68-2.3-1.66-3-2.29-2-1.9-5.44-1.4-7.74-.37-1.44.64-5,3.18-3,5.11h0Z" transform="translate(-4595.16 -5237.14)" fill="#3c3c3b"/>
      <path d="M5218.35,5461.42a7,7,0,0,0-1,8.88c1.4,2.36,5.93,1.84,7.86.81,4.2-2.26,7.91-6,8.33-11a7.38,7.38,0,0,0-6.77-8.3c-4.55-.48-9.74,2.17-11.36,6.58s1.44,8.32,4.91,10.62c2.66,1.77,7.36.81,9.31-1.65l3.35-4.24c1.28-1.61,1.46-3.67-.36-5-8.77-6.21-22.53-2.51-27.43,6.9-1.33,2.56,1.21,4.46,3.51,4.77,2.76,0.37,6.22-1,7.56-3.52,1.62-3.12,4.65-3.49,7.42-1.54l-0.36-5-3.35,4.24,9.31-1.65a8.1,8.1,0,0,1-2.34-2.35l-0.23-.87q0.73-2.93-5.13.47c-0.24,1.64.6,3.66-1.45,4.77l7.86,0.81q-0.31-.37.06-0.51c1.91-2,.89-4.58-1.47-5.5-2.74-1.07-6.25.16-8.2,2.2h0Z" transform="translate(-4595.16 -5237.14)" fill="#3c3c3b"/>
      <path d="M5198.61,5515.41l-1,10c-0.17,1.75,10.87,0,11.51-2.57,1.53-6.26-3.46-11.1-9.51-11.32a15.57,15.57,0,0,0-6.43,1.33c-0.77.33-3.43,1.34-3.12,2.59,1.48,6,7.82,7.1,13.09,6.11,5.65-1.06,12.2-4.28,12.3-10.8,0-2.29-8.36.39-9.14,0.79-3.47,1.8-7,5.61-4.23,9.6,1.85,2.62,12.58-1.44,11.59-3.11-1.81-3-6.85-1.65-9.51-.8-2.2.71-7.08,2.51-6.05,5.7,0.86,2.66,12.38-.67,11.59-3.11a0.85,0.85,0,0,1-.08-0.83q-10.66-1.13-7.54,2.15l11.59-3.11a4.6,4.6,0,0,1-1-3.07,4.22,4.22,0,0,1,.39-1.4c0.4-.83,1.28-1.22-0.11-0.5l-9.14.79a6.14,6.14,0,0,1-.79,3c-0.25.44-.61,0.76-0.89,1.18-1.24,1.84,5.19,0,3.53-1-2-1.3-3.42-2.17-4-4.71l-9.55,3.92c3.92,0.14,6.43,5.18,5.59,8.62l11.51-2.57,1-10c0.15-1.51-11.25-.38-11.59,3.11h0Z" transform="translate(-4595.16 -5237.14)" fill="#3c3c3b"/>
    </g>
  </g>
</svg>
