<?xml version="1.0" encoding="UTF-8"?>
<svg width="86px" height="44px" viewBox="0 0 86 44" version="1.1" xmlns="http://www.w3.org/2000/svg" xmlns:xlink="http://www.w3.org/1999/xlink">
    <!-- Generator: Sketch 42 (36781) - http://www.bohemiancoding.com/sketch -->
    <title>3 stars</title>
    <desc>Created with Sketch.</desc>
    <defs></defs>
    <g id="home" stroke="none" stroke-width="1" fill="none" fill-rule="evenodd">
        <g id="Desktop-HD-(home)" transform="translate(-525.000000, -2625.000000)" fill="#1575BC">
            <g id="prizes" transform="translate(75.000000, 2441.000000)">
                <g id="1st-prize" transform="translate(341.000000, 155.000000)">
                    <g id="3-stars" transform="translate(109.000000, 29.000000)">
                        <polygon id="Star" points="13 39.5 5.35879172 43.5172209 6.81813264 35.0086105 0.636265288 28.9827791 9.17939586 27.7413895 13 20 16.8206041 27.7413895 25.3637347 28.9827791 19.1818674 35.0086105 20.6412083 43.5172209"></polygon>
                        <polygon id="Star-Copy" points="43 19.5 35.3587917 23.5172209 36.8181326 15.0086105 30.6362653 8.98277907 39.1793959 7.74138954 43 0 46.8206041 7.74138954 55.3637347 8.98277907 49.1818674 15.0086105 50.6412083 23.5172209"></polygon>
                        <polygon id="Star-Copy-2" points="73 39.5 65.3587917 43.5172209 66.8181326 35.0086105 60.6362653 28.9827791 69.1793959 27.7413895 73 20 76.8206041 27.7413895 85.3637347 28.9827791 79.1818674 35.0086105 80.6412083 43.5172209"></polygon>
                    </g>
                </g>
            </g>
        </g>
    </g>
</svg>